<?xml version="1.0" standalone="no"?>
<!DOCTYPE svg PUBLIC "-//W3C//DTD SVG 20010904//EN" "http://www.w3.org/TR/2001/REC-SVG-20010904/DTD/svg10.dtd">
<svg version="1.0" xmlns="http://www.w3.org/2000/svg"
    width="870.000000pt" height="287.000000pt" viewBox="0 0 870.000000 287.000000"
    preserveAspectRatio="xMidYMid meet">

    <g transform="translate(0.000000,287.000000) scale(0.100000,-0.100000)"
        fill="#FFFFFF" stroke="none">
        <path
            d="M1554 2486 c-27 -24 -88 -67 -134 -95 -83 -49 -150 -103 -150 -118 1
-17 79 -98 80 -82 0 22 45 77 154 189 94 96 123 135 108 144 -5 3 -31 -15 -58
-38z" />
        <path
            d="M440 2470 l0 -40 499 0 499 1 40 29 c22 16 43 33 47 39 4 8 -156 11
-539 11 l-546 0 0 -40z" />
        <path
            d="M1610 2460 c-13 -27 -34 -57 -48 -66 -13 -8 -21 -18 -19 -21 3 -3 23
8 43 23 l37 29 3274 3 3273 2 0 40 0 40 -3268 0 -3269 0 -23 -50z" />
        <path
            d="M1467 2295 c-32 -33 -69 -77 -83 -98 l-25 -38 32 -44 c33 -46 53 -63
27 -22 -43 66 -43 63 -19 93 12 16 47 55 78 87 l56 57 113 0 114 0 -1 -622 -1
-623 -23 95 c-13 52 -33 145 -45 205 -12 61 -42 173 -67 249 -45 138 -112 310
-119 303 -2 -1 10 -36 26 -75 54 -134 130 -382 161 -530 36 -173 55 -302 47
-324 -6 -14 -53 -17 -350 -23 -189 -4 -381 -5 -428 -2 -47 3 -129 9 -182 12
-86 6 -98 5 -98 -9 0 -19 -35 -18 622 -20 l467 -1 1 692 0 692 -122 3 -123 3
-58 -60z" />
        <path
            d="M690 1988 c0 -199 3 -358 7 -354 4 4 6 162 4 352 l-3 344 307 0 c201
0 304 3 300 10 -4 6 -118 10 -311 10 l-304 0 0 -362z" />
        <path
            d="M2405 2329 c-158 -39 -294 -129 -394 -261 -103 -135 -141 -243 -141
-400 0 -301 178 -550 477 -669 52 -21 74 -23 213 -23 169 0 229 10 367 64 43
16 104 46 136 66 l57 36 -2 301 -3 302 -280 0 -279 0 -28 -84 c-15 -46 -25
-88 -21 -94 4 -6 79 -8 207 -6 l201 4 0 -155 0 -154 -40 -23 c-81 -47 -193
-75 -295 -75 -114 0 -191 22 -273 76 -216 144 -296 412 -187 633 44 90 145
194 225 234 172 84 403 71 559 -32 32 -21 62 -39 67 -39 5 0 34 30 64 68 l56
67 -36 32 c-50 43 -192 111 -283 134 -100 25 -258 25 -367 -2z" />
        <path
            d="M4891 2334 c-77 -17 -189 -69 -254 -119 -109 -84 -220 -257 -248
-390 -19 -86 -16 -266 5 -344 67 -248 270 -446 509 -498 105 -22 286 -13 393
21 168 53 312 182 388 347 134 293 57 641 -188 847 -64 54 -190 116 -276 136
-80 19 -242 19 -329 0z m334 -205 c122 -45 238 -164 286 -294 44 -118 35 -306
-21 -414 -32 -63 -103 -141 -165 -182 -91 -60 -175 -82 -294 -77 -89 3 -105 7
-173 41 -126 62 -238 199 -267 328 -15 66 -13 183 5 252 51 198 203 339 399
370 57 10 173 -3 230 -24z" />
        <path
            d="M3392 1664 l-4 -677 94 8 c51 4 96 9 100 12 5 2 8 138 9 301 l0 297
32 -38 c18 -21 118 -158 222 -304 105 -147 197 -271 206 -276 19 -12 156 16
186 38 21 16 37 -10 -215 330 -84 113 -150 210 -147 215 3 6 17 10 30 10 43 0
134 51 170 95 61 74 89 148 93 252 4 86 2 96 -26 157 -38 80 -101 145 -181
186 -97 48 -153 58 -368 65 l-198 6 -3 -677z m433 447 c93 -41 125 -90 125
-188 -1 -145 -99 -228 -280 -235 l-75 -3 -3 229 -2 229 92 -5 c66 -4 108 -11
143 -27z" />
        <path
            d="M7008 2317 l-86 -9 -4 -50 c-1 -27 -2 -324 0 -660 l3 -611 92 8 c51
4 94 9 97 12 10 10 5 1316 -5 1318 -5 1 -49 -2 -97 -8z" />
        <path
            d="M5980 1654 l0 -667 87 7 c48 4 91 10 95 12 4 3 8 131 8 285 l0 279
88 0 c48 0 144 3 215 7 l127 6 0 88 0 89 -212 2 -213 3 0 180 0 180 278 3 277
2 -5 23 c-3 12 -13 54 -23 92 l-17 70 -352 3 -353 2 0 -666z" />
        <path
            d="M7324 2288 c-17 -33 -54 -135 -54 -150 0 -4 81 -8 180 -8 l180 0 0
-571 0 -570 98 7 c53 4 99 8 101 10 2 2 5 255 5 561 l1 558 163 3 162 2 0 95
0 95 -410 0 -409 0 -17 -32z" />
        <path
            d="M1081 2113 c-110 -110 -156 -166 -229 -276 -148 -221 -211 -360 -267
-586 -51 -207 -50 -199 -23 -205 46 -11 298 -11 298 -1 0 20 30 281 36 316 l6
37 -106 7 c-58 4 -109 11 -111 16 -8 12 15 22 65 30 25 4 68 13 95 19 28 6 60
13 73 16 12 2 22 10 22 17 0 17 66 169 115 268 21 41 67 118 104 172 129 191
124 182 107 216 -21 40 -21 58 0 40 19 -16 44 -63 44 -83 0 -9 -33 -62 -74
-118 -108 -152 -215 -351 -251 -467 -14 -45 13 -12 29 36 21 62 112 223 200
353 39 57 78 118 87 134 15 27 17 28 22 10 18 -57 40 -221 41 -301 1 -91 1
-92 -32 -126 -18 -18 -52 -44 -75 -56 -103 -56 -319 -130 -377 -131 -60 -1
-68 -17 -12 -25 61 -8 292 18 399 46 42 10 79 17 83 14 4 -2 10 -46 14 -97 4
-51 14 -144 22 -206 8 -62 14 -119 14 -126 0 -10 37 -14 152 -19 84 -3 154 -5
155 -3 4 3 -51 281 -76 386 -78 329 -256 720 -359 785 -17 11 -31 26 -32 33 0
28 -28 6 -159 -125z" />
        <path d="M1470 1994 c0 -6 7 -19 16 -30 14 -18 14 -18 3 6 -14 31 -19 36 -19
24z" />
        <path
            d="M1307 1444 c-9 -10 -188 -43 -232 -44 -22 0 -63 -3 -91 -6 l-51 -6
-11 -77 c-7 -42 -15 -119 -18 -171 -3 -52 -7 -107 -9 -122 -3 -16 0 -28 5 -28
6 0 10 24 10 53 1 73 26 276 39 310 9 24 15 27 58 27 111 1 313 42 313 64 0 8
-5 7 -13 0z" />
        <path
            d="M449 915 c-1 -5 -3 -25 -5 -42 l-2 -33 3864 0 3865 0 -3 40 -3 41
-3857 2 c-2566 1 -3858 -1 -3859 -8z" />
        <path
            d="M840 495 c-46 -21 -87 -60 -113 -110 -33 -62 -31 -184 5 -245 50 -86
115 -114 247 -108 70 3 93 8 119 27 27 19 82 95 82 113 0 9 -90 29 -101 23 -5
-4 -16 -19 -24 -35 -34 -67 -138 -79 -196 -24 -55 53 -64 171 -18 238 29 42
56 56 112 56 43 0 66 -11 113 -55 23 -21 27 -22 67 -10 24 8 41 18 39 26 -5
22 -42 62 -80 88 -32 23 -49 26 -127 29 -65 1 -100 -2 -125 -13z" />
        <path
            d="M1384 491 c-51 -23 -111 -93 -125 -145 -15 -56 -6 -153 19 -202 25
-49 74 -88 127 -103 50 -14 178 -14 227 -1 86 24 148 119 148 227 0 107 -42
175 -135 219 -65 31 -198 34 -261 5z m206 -76 c49 -25 82 -78 83 -132 1 -109
-51 -173 -146 -180 -71 -5 -115 18 -144 77 -46 91 -16 208 62 240 33 14 114
11 145 -5z" />
        <path
            d="M1878 504 c-5 -4 -8 -110 -8 -235 l0 -229 24 -6 c13 -3 35 -4 47 -2
24 3 24 4 24 145 0 77 3 144 6 148 4 3 17 -9 30 -27 12 -18 58 -82 103 -143
44 -60 81 -111 82 -113 1 -2 27 -6 58 -9 l56 -6 0 239 0 239 -48 0 -47 0 2
-152 c1 -84 -2 -155 -7 -158 -5 -3 -37 36 -71 87 -34 51 -83 120 -107 153 -25
33 -46 61 -47 62 -5 8 -91 14 -97 7z" />
        <path
            d="M2495 496 c-74 -33 -104 -112 -66 -173 26 -41 62 -59 175 -90 50 -13
99 -32 110 -42 40 -40 -14 -91 -96 -91 -54 0 -87 17 -108 55 -15 26 -22 30
-59 29 -59 -1 -70 -16 -46 -60 41 -77 102 -99 250 -91 l100 5 37 41 c34 36 38
46 38 92 0 47 -4 55 -38 88 -32 30 -55 40 -150 65 -61 16 -117 35 -123 42 -17
21 -3 43 36 59 57 24 89 19 131 -20 34 -32 43 -36 83 -33 42 3 46 5 43 28 -3
32 -38 68 -87 91 -48 22 -184 25 -230 5z" />
        <path
            d="M2948 503 c-16 -4 -18 -21 -18 -176 0 -191 12 -238 66 -274 41 -26
266 -27 305 0 52 35 60 74 57 272 l-3 180 -46 3 -47 3 -4 -181 -3 -182 -28
-24 c-33 -28 -89 -32 -142 -10 -19 8 -36 16 -37 18 -1 2 -4 86 -7 188 l-6 185
-35 2 c-19 0 -43 -1 -52 -4z" />
        <path
            d="M3520 503 l-35 -4 0 -229 0 -228 35 -6 c19 -3 106 -6 193 -6 l157 0
0 40 0 40 -140 0 -140 0 -2 197 c-3 217 1 204 -68 196z" />
        <path
            d="M3852 465 l3 -40 65 -2 c36 0 73 -1 83 -2 16 -1 17 -14 11 -190 l-5
-188 23 -7 c13 -3 38 -6 56 -6 l32 0 0 195 0 195 43 2 c23 1 59 2 80 1 34 -1
37 2 39 28 0 16 1 34 2 40 1 7 -70 11 -217 12 l-218 2 3 -40z" />
        <path
            d="M4451 491 c-6 -10 -41 -90 -79 -177 -38 -87 -81 -183 -96 -213 -14
-30 -26 -59 -26 -63 0 -5 26 -8 57 -6 l58 3 15 43 c9 24 23 48 31 53 17 10
199 12 215 1 5 -4 16 -23 24 -42 7 -19 17 -40 21 -46 10 -12 123 -19 117 -7
-2 4 -18 40 -36 78 -18 39 -65 141 -105 227 -76 166 -78 168 -149 168 -26 0
-40 -6 -47 -19z m106 -188 c18 -42 31 -79 28 -81 -9 -9 -133 -14 -138 -6 -7
13 54 164 67 164 6 0 25 -35 43 -77z" />
        <path
            d="M5192 501 c-32 -6 -35 -11 -128 -220 -52 -118 -99 -220 -105 -227
-14 -17 22 -27 77 -22 36 3 39 5 51 49 12 43 17 47 51 53 66 11 189 7 200 -6
6 -7 14 -29 19 -48 8 -31 14 -35 54 -42 96 -18 97 -28 -17 222 -57 124 -105
228 -106 231 -5 11 -61 17 -96 10z m76 -208 c17 -39 28 -74 25 -77 -11 -11
-132 -6 -138 5 -4 5 8 46 26 90 38 92 41 92 87 -18z" />
        <path
            d="M6118 504 c-5 -4 -8 -110 -8 -236 l0 -228 28 -1 c15 -1 107 -2 204
-3 l178 -1 0 38 0 39 -137 -2 c-76 -1 -144 -2 -151 -1 -9 1 -12 18 -10 64 l3
62 138 3 137 3 0 39 0 40 -140 0 -140 0 0 50 0 50 75 1 c41 1 80 3 85 4 6 1
38 3 73 4 l63 1 1 35 1 35 -131 0 c-73 0 -161 3 -197 6 -36 3 -68 3 -72 -2z" />
        <path
            d="M6620 278 l0 -236 23 -6 c12 -3 37 -6 55 -6 l32 0 0 94 c0 52 4 97 8
100 4 2 27 2 51 -1 44 -6 44 -6 172 -166 13 -16 32 -22 78 -25 36 -3 61 0 61
5 0 17 -99 141 -130 165 -17 12 -30 25 -30 30 0 4 18 15 40 24 106 43 116 186
16 228 -22 9 -96 17 -205 22 l-171 7 0 -235z m328 130 c14 -12 16 -56 3 -76
-11 -19 -74 -31 -153 -32 l-68 0 0 58 c0 32 2 61 5 64 9 9 200 -4 213 -14z" />
        <path
            d="M7133 493 c-2 -6 -3 -24 -1 -40 3 -25 7 -28 32 -25 16 2 54 1 84 -3
l54 -7 -4 -189 c-5 -209 -8 -199 65 -199 l42 0 -3 195 -4 195 87 0 86 0 -3 43
-3 42 -214 0 c-153 0 -215 -3 -218 -12z" />
        <path
            d="M7716 459 c-13 -30 -57 -128 -96 -219 -39 -91 -77 -171 -83 -178 -16
-20 10 -33 62 -30 41 3 44 5 61 47 9 24 24 47 33 52 9 6 63 8 119 7 l102 -3
17 -45 c11 -31 24 -47 40 -51 32 -9 99 -11 99 -2 0 3 -14 36 -32 72 -17 36
-61 131 -97 211 -90 197 -79 182 -144 188 l-56 4 -25 -53z m124 -156 c43 -94
42 -94 -37 -91 -52 2 -68 7 -71 19 -4 23 56 151 68 144 6 -4 24 -36 40 -72z" />
        <path
            d="M5558 271 l-3 -231 45 -1 c25 -1 110 -1 190 0 121 2 149 5 170 20 29
21 49 58 57 106 6 34 -5 50 -72 104 -15 12 -15 15 3 35 53 57 55 102 8 154
l-34 37 -181 3 -180 3 -3 -230z m265 150 l58 -1 -3 -47 -3 -48 -49 -8 c-27 -4
-72 -7 -100 -5 l-51 3 -6 50 c-7 59 0 66 56 60 22 -2 66 -4 98 -4z m63 -205
c17 -24 18 -80 2 -94 -7 -5 -58 -12 -113 -14 l-100 -3 -3 54 c-5 84 -6 83 104
79 81 -2 98 -6 110 -22z" />
    </g>
</svg>